<?xml version="1.0" encoding="UTF-8"?>
<svg xmlns="http://www.w3.org/2000/svg" xmlns:xlink="http://www.w3.org/1999/xlink" width="16pt" height="16pt" viewBox="0 0 16 16" version="1.1">
<g id="surface42901017">
<path style=" stroke:none;fill-rule:nonzero;fill:rgb(40.000001%,40.000001%,40.000001%);fill-opacity:1;" d="M 4.042969 2.71875 C 4 2.71875 3.960938 2.738281 3.929688 2.765625 L 2.765625 3.929688 C 2.703125 3.992188 2.703125 4.09375 2.765625 4.15625 L 6.609375 8 L 2.765625 11.84375 C 2.703125 11.90625 2.703125 12.007812 2.765625 12.070312 L 3.929688 13.234375 C 3.992188 13.296875 4.09375 13.296875 4.15625 13.234375 L 8 9.390625 L 11.84375 13.234375 C 11.90625 13.296875 12.007812 13.296875 12.070312 13.234375 L 13.234375 12.070312 C 13.296875 12.007812 13.296875 11.90625 13.234375 11.84375 L 9.390625 8 L 13.234375 4.15625 C 13.296875 4.09375 13.296875 3.992188 13.234375 3.929688 L 12.070312 2.765625 C 12.007812 2.703125 11.90625 2.703125 11.84375 2.765625 L 8 6.609375 L 4.15625 2.765625 C 4.125 2.734375 4.085938 2.71875 4.042969 2.71875 Z M 4.042969 3.105469 L 7.886719 6.949219 C 7.949219 7.011719 8.050781 7.011719 8.113281 6.949219 L 11.957031 3.105469 L 12.894531 4.042969 L 9.050781 7.886719 C 8.988281 7.949219 8.988281 8.050781 9.050781 8.113281 L 12.894531 11.957031 L 11.957031 12.894531 L 8.113281 9.050781 C 8.050781 8.988281 7.949219 8.988281 7.886719 9.050781 L 4.042969 12.894531 L 3.105469 11.957031 L 6.949219 8.113281 C 7.011719 8.050781 7.011719 7.949219 6.949219 7.886719 L 3.105469 4.042969 Z M 4.078125 4 C 4.046875 4 4.015625 4.019531 4.003906 4.050781 C 3.992188 4.078125 4 4.113281 4.023438 4.136719 L 4.183594 4.296875 C 4.203125 4.316406 4.234375 4.324219 4.261719 4.320312 C 4.289062 4.3125 4.3125 4.289062 4.320312 4.261719 C 4.324219 4.234375 4.316406 4.203125 4.296875 4.183594 L 4.136719 4.023438 C 4.121094 4.007812 4.101562 4 4.078125 4 Z M 11.917969 4 C 11.898438 4 11.878906 4.007812 11.863281 4.023438 L 11.703125 4.183594 C 11.683594 4.203125 11.675781 4.234375 11.679688 4.261719 C 11.6875 4.289062 11.710938 4.3125 11.738281 4.320312 C 11.765625 4.324219 11.796875 4.316406 11.816406 4.296875 L 11.976562 4.136719 C 12 4.113281 12.007812 4.078125 11.996094 4.046875 C 11.980469 4.019531 11.953125 4 11.917969 4 Z M 4.558594 4.480469 C 4.527344 4.480469 4.496094 4.5 4.484375 4.527344 C 4.472656 4.558594 4.480469 4.59375 4.503906 4.617188 L 4.824219 4.9375 C 4.84375 4.957031 4.875 4.964844 4.902344 4.957031 C 4.929688 4.953125 4.953125 4.929688 4.957031 4.902344 C 4.964844 4.875 4.957031 4.84375 4.9375 4.824219 L 4.617188 4.503906 C 4.601562 4.488281 4.582031 4.480469 4.558594 4.480469 Z M 11.4375 4.480469 C 11.417969 4.480469 11.398438 4.488281 11.382812 4.503906 L 8 7.886719 L 5.257812 5.144531 C 5.242188 5.128906 5.222656 5.117188 5.199219 5.117188 C 5.167969 5.117188 5.136719 5.140625 5.125 5.167969 C 5.113281 5.199219 5.121094 5.234375 5.144531 5.257812 L 7.886719 8 L 4.503906 11.382812 C 4.484375 11.402344 4.472656 11.433594 4.480469 11.460938 C 4.488281 11.488281 4.511719 11.511719 4.539062 11.519531 C 4.566406 11.527344 4.597656 11.515625 4.617188 11.496094 L 8 8.113281 L 10.742188 10.855469 C 10.761719 10.878906 10.792969 10.886719 10.820312 10.878906 C 10.847656 10.871094 10.871094 10.847656 10.878906 10.820312 C 10.886719 10.792969 10.878906 10.761719 10.855469 10.742188 L 8.113281 8 L 11.496094 4.617188 C 11.519531 4.59375 11.527344 4.558594 11.515625 4.527344 C 11.5 4.496094 11.472656 4.476562 11.4375 4.480469 Z M 11.117188 11.039062 C 11.085938 11.039062 11.058594 11.058594 11.042969 11.089844 C 11.03125 11.121094 11.039062 11.152344 11.0625 11.175781 L 11.382812 11.496094 C 11.402344 11.515625 11.433594 11.527344 11.460938 11.519531 C 11.488281 11.511719 11.511719 11.488281 11.519531 11.460938 C 11.527344 11.433594 11.515625 11.402344 11.496094 11.382812 L 11.175781 11.0625 C 11.160156 11.046875 11.140625 11.039062 11.117188 11.039062 Z M 11.757812 11.679688 C 11.726562 11.679688 11.695312 11.699219 11.683594 11.730469 C 11.671875 11.757812 11.679688 11.792969 11.703125 11.816406 L 11.863281 11.976562 C 11.882812 11.996094 11.914062 12.007812 11.941406 12 C 11.96875 11.992188 11.992188 11.96875 12 11.941406 C 12.007812 11.914062 11.996094 11.882812 11.976562 11.863281 L 11.816406 11.703125 C 11.800781 11.6875 11.78125 11.679688 11.757812 11.679688 Z M 4.238281 11.679688 C 4.21875 11.679688 4.199219 11.6875 4.183594 11.703125 L 4.023438 11.863281 C 4.003906 11.882812 3.992188 11.914062 4 11.941406 C 4.007812 11.96875 4.03125 11.992188 4.058594 12 C 4.085938 12.007812 4.117188 11.996094 4.136719 11.976562 L 4.296875 11.816406 C 4.320312 11.792969 4.328125 11.757812 4.3125 11.726562 C 4.300781 11.699219 4.269531 11.679688 4.238281 11.679688 Z M 4.238281 11.679688 "/>
</g>
</svg>
